<svg xmlns="http://www.w3.org/2000/svg" width="1500" height="500" viewBox="0 0 1500 500" role="img" aria-label="Rovrum — Aye, that Rotherham. Said proper.">
  <defs>
    <radialGradient id="glow" cx="50%" cy="0%" r="80%">
      <stop offset="0%" stop-color="#b23a2e" stop-opacity="0.18"/>
      <stop offset="60%" stop-color="#b23a2e" stop-opacity="0"/>
    </radialGradient>
  </defs>
  <rect width="1500" height="500" fill="#141518"/>
  <rect width="1500" height="500" fill="url(#glow)"/>
  <path d="M36 0V72L128 98L110 70V630L135 600L36 627V699L259 704H356Q476 704 537.0 654.0Q598 604 598 510Q598 426 546.5 371.0Q495 316 385 304L386 320Q425 319 450.0 308.0Q475 297 491.5 277.5Q508 258 522 231L602 77L561 102L653 72V0H489L399 193Q381 231 368.0 251.5Q355 272 336.0 279.5Q317 287 281 286H229L253 306V70L234 99L335 72V0ZM253 350 229 385H312Q382 385 417.0 414.0Q452 443 452 500Q452 548 424.0 575.0Q396 602 338 602H229L253 624Z" transform="matrix(0.14 0 0 -0.14 477.21 275.2)" fill="#f7f5f2"/>
  <path d="M296 546Q414 546 480.0 476.0Q546 406 546 277Q546 187 514.0 122.5Q482 58 422.0 23.0Q362 -12 278 -12Q160 -12 95.5 58.0Q31 128 31 257Q31 347 62.5 411.5Q94 476 153.0 511.0Q212 546 296 546ZM289 446Q232 446 204.0 401.5Q176 357 176 264Q176 171 203.0 129.5Q230 88 285 88Q325 88 350.0 108.0Q375 128 388.0 169.0Q401 210 401 270Q401 361 373.0 403.5Q345 446 289 446Z" transform="matrix(0.14 0 0 -0.14 566.39 275.2)" fill="#f7f5f2"/>
  <path d="M322 530 548 538V467L491 442L510 463L345 -2H181L36 458L56 442L-4 458V530L241 538V467L168 445L178 463L280 87H269L382 455L390 444L322 458Z" transform="matrix(0.14 0 0 -0.14 642.97 275.2)" fill="#f7f5f2"/>
  <path d="M29 0V72L110 95L96 74V458L112 434L29 459V531L205 539L223 444L205 448Q250 495 294.0 520.5Q338 546 388 546Q420 546 456 536L447 354H365L351 459L364 432Q358 434 351.5 435.0Q345 436 339 436Q308 436 277.5 417.0Q247 398 225 368L236 406V74L220 95L319 72V0Z" transform="matrix(0.14 0 0 -0.14 714.93 275.2)" fill="#f7f5f2"/>
  <path d="M233 -12Q167 -12 122.0 31.5Q77 75 77 163V455L90 435L10 459V531L217 538V186Q217 139 238.0 116.5Q259 94 294 94Q321 94 353.0 108.5Q385 123 417 154L408 129V458L421 435L341 459V531L548 538V74L531 98L614 72V1L439 -7L420 91L439 84Q390 36 336.0 12.0Q282 -12 233 -12Z" transform="matrix(0.14 0 0 -0.14 776.53 275.2)" fill="#f7f5f2"/>
  <path d="M544 453 524 448Q572 497 626.0 521.5Q680 546 729 546Q792 546 834.5 504.5Q877 463 877 377V76L864 96L944 72V0H681V72L754 94L737 73V346Q737 394 717.5 417.0Q698 440 667 440Q641 440 609.0 424.0Q577 408 545 377L555 408Q557 400 557.0 393.5Q557 387 557 382V76L544 96L614 72V0H360V72L433 94L417 73V346Q417 394 397.0 417.0Q377 440 347 440Q321 440 289.0 425.0Q257 410 227 380L236 401V73L223 94L293 72V0H29V72L113 96L96 76V457L113 434L29 459V531L205 539L223 443L205 450Q252 497 305.5 521.5Q359 546 408 546Q454 546 490.0 523.5Q526 501 544 453Z" transform="matrix(0.14 0 0 -0.14 860.81 275.2)" fill="#f7f5f2"/>
  <path d="M37 68Q37 103 60.5 124.5Q84 146 116 146Q153 146 174.5 124.5Q196 103 196 68Q196 33 172.0 11.5Q148 -10 116 -10Q80 -10 58.5 11.5Q37 33 37 68Z" transform="matrix(0.14 0 0 -0.14 990.1700000000001 275.2)" fill="#b23a2e"/>
  <path d="M-36 0 -24 73 59 100 19 71 344 703 490 707 606 68 576 101 649 73 638 0H373L385 73L463 99L456 78L437 208L447 188H196L216 206L156 79L154 96L226 73L214 0ZM245 268 239 290H441L431 265L380 626H415Z" transform="matrix(0.04 0 0 -0.04 436.6199999999999 329.2)" fill="#b23a2e"/>
  <path d="M11 -242Q-21 -242 -56 -235L-38 -134Q-24 -136 -12.5 -137.0Q-1 -138 10 -138Q53 -138 84.0 -120.5Q115 -103 141.0 -67.0Q167 -31 196 26L189 -22L70 455L80 443L26 457L37 530L199 539L281 87L244 94L407 457L412 443L355 457L366 530L585 539L574 466L515 446L536 458L313 2Q300 -24 282.5 -56.5Q265 -89 240.5 -121.5Q216 -154 184.0 -181.5Q152 -209 109.0 -225.5Q66 -242 11 -242Z" transform="matrix(0.04 0 0 -0.04 464.0999999999999 329.2)" fill="#b23a2e"/>
  <path d="M234 -12Q176 -12 129.0 11.0Q82 34 54.5 83.0Q27 132 27 210Q27 274 47.5 334.5Q68 395 106.5 442.5Q145 490 201.0 518.0Q257 546 328 546Q412 546 459.5 507.5Q507 469 507 406Q507 359 480.0 323.0Q453 287 407.5 262.5Q362 238 304.5 225.5Q247 213 185 213Q174 213 165.5 213.5Q157 214 150 214L157 303Q168 302 178.5 301.0Q189 300 200 300Q231 300 261.5 305.5Q292 311 316.5 322.5Q341 334 356.0 351.5Q371 369 371 392Q371 416 354.5 431.5Q338 447 309 447Q274 447 247.5 425.5Q221 404 202.5 369.0Q184 334 174.0 293.0Q164 252 164 213Q164 147 191.5 118.0Q219 89 265 89Q298 89 336.0 101.0Q374 113 415 134L451 53Q396 21 340.5 4.5Q285 -12 234 -12Z" transform="matrix(0.04 0 0 -0.04 485.6999999999999 329.2)" fill="#b23a2e"/>
  <path d="M8 -179 -40 -139Q-9 -101 7.5 -78.0Q24 -55 30.0 -40.5Q36 -26 36 -16Q36 -3 31.5 6.5Q27 16 23.0 28.5Q19 41 19 59Q19 89 31.5 109.0Q44 129 63.5 138.5Q83 148 104 148Q131 148 152.5 130.5Q174 113 174 75Q174 36 152.0 -6.0Q130 -48 93.0 -91.5Q56 -135 8 -179Z" transform="matrix(0.04 0 0 -0.04 506.3799999999999 329.2)" fill="#b23a2e"/>
  <path d="" transform="matrix(0.04 0 0 -0.04 516.5799999999999 329.2)" fill="#b23a2e"/>
  <path d="M197 -12Q139 -12 102.0 19.0Q65 50 65 118Q65 128 66.0 137.5Q67 147 68 159L115 458L129 440H36L49 516L150 540L124 515L147 652L288 676L262 515L252 534H399L383 440H235L253 458L207 167Q206 163 205.5 156.5Q205 150 205 143Q205 116 216.0 104.5Q227 93 248 93Q262 93 280.5 98.5Q299 104 319 113L348 24Q307 6 268.5 -3.0Q230 -12 197 -12Z" transform="matrix(0.04 0 0 -0.04 523.6199999999999 329.2)" fill="#b23a2e"/>
  <path d="M339 -5 393 330Q399 361 396.0 385.0Q393 409 382.0 423.0Q371 437 348 437Q327 437 304.5 424.0Q282 411 261.5 385.5Q241 360 225.0 320.5Q209 281 201 227L165 0H27L138 697L155 673L67 695L79 771L287 779L214 368L162 292Q183 382 223.5 438.0Q264 494 314.0 520.0Q364 546 410 546Q456 546 487.0 523.5Q518 501 531.5 459.5Q545 418 535 361L490 75L431 118L562 76L549 1Z" transform="matrix(0.04 0 0 -0.04 539.3799999999999 329.2)" fill="#b23a2e"/>
  <path d="M172 -12Q132 -12 98.5 9.0Q65 30 45.0 74.0Q25 118 25 189Q25 263 48.0 328.0Q71 393 113.0 442.0Q155 491 210.5 519.0Q266 547 331 547Q374 547 419.0 533.0Q464 519 509 486L447 499L474 534H548L468 29L421 118L548 76L536 1L341 -5L371 169L412 243Q395 159 355.5 102.0Q316 45 267.0 16.5Q218 -12 172 -12ZM228 100Q249 100 271.5 113.5Q294 127 314.5 154.5Q335 182 351.0 221.5Q367 261 376 313L398 452L421 406Q396 425 373.0 433.5Q350 442 328 442Q292 442 262.5 422.5Q233 403 211.0 369.5Q189 336 177.5 293.5Q166 251 166 205Q166 151 183.0 125.5Q200 100 228 100Z" transform="matrix(0.04 0 0 -0.04 563.4199999999998 329.2)" fill="#b23a2e"/>
  <path d="M197 -12Q139 -12 102.0 19.0Q65 50 65 118Q65 128 66.0 137.5Q67 147 68 159L115 458L129 440H36L49 516L150 540L124 515L147 652L288 676L262 515L252 534H399L383 440H235L253 458L207 167Q206 163 205.5 156.5Q205 150 205 143Q205 116 216.0 104.5Q227 93 248 93Q262 93 280.5 98.5Q299 104 319 113L348 24Q307 6 268.5 -3.0Q230 -12 197 -12Z" transform="matrix(0.04 0 0 -0.04 587.06 329.2)" fill="#b23a2e"/>
  <path d="" transform="matrix(0.04 0 0 -0.04 602.8199999999999 329.2)" fill="#b23a2e"/>
  <path d="M-1 0 10 73 98 99 79 78 166 623 181 600 98 626 110 699 326 704H411Q618 704 618 536Q618 470 588.5 420.5Q559 371 506.5 341.0Q454 311 384 304L383 327Q437 327 463.5 299.0Q490 271 504 229L555 78L521 104L600 73L588 0H434L378 199Q367 241 356.0 259.0Q345 277 328.5 282.0Q312 287 283 286L231 285L258 307L220 78L212 99L298 73L287 0ZM266 355 249 387H317Q367 387 401.0 406.0Q435 425 453.5 456.0Q472 487 472 523Q472 552 462.0 568.0Q452 584 436.5 590.5Q421 597 406.0 598.5Q391 600 380 600H287L307 625Z" transform="matrix(0.04 0 0 -0.04 609.8599999999999 329.2)" fill="#b23a2e"/>
  <path d="M237 -12Q175 -12 128.0 10.5Q81 33 55.0 82.5Q29 132 29 211Q29 274 46.5 333.5Q64 393 100.5 441.0Q137 489 192.5 517.5Q248 546 324 546Q386 546 433.0 523.5Q480 501 506.5 452.0Q533 403 533 324Q533 261 515.5 201.0Q498 141 461.0 93.0Q424 45 368.5 16.5Q313 -12 237 -12ZM251 89Q290 89 317.0 113.5Q344 138 361.0 176.0Q378 214 385.5 255.0Q393 296 393 329Q393 383 373.5 414.0Q354 445 310 445Q271 445 244.0 420.5Q217 396 200.5 358.5Q184 321 176.5 280.0Q169 239 169 206Q169 152 188.5 120.5Q208 89 251 89Z" transform="matrix(0.04 0 0 -0.04 635.8199999999999 329.2)" fill="#b23a2e"/>
  <path d="M197 -12Q139 -12 102.0 19.0Q65 50 65 118Q65 128 66.0 137.5Q67 147 68 159L115 458L129 440H36L49 516L150 540L124 515L147 652L288 676L262 515L252 534H399L383 440H235L253 458L207 167Q206 163 205.5 156.5Q205 150 205 143Q205 116 216.0 104.5Q227 93 248 93Q262 93 280.5 98.5Q299 104 319 113L348 24Q307 6 268.5 -3.0Q230 -12 197 -12Z" transform="matrix(0.04 0 0 -0.04 658.2599999999999 329.2)" fill="#b23a2e"/>
  <path d="M339 -5 393 330Q399 361 396.0 385.0Q393 409 382.0 423.0Q371 437 348 437Q327 437 304.5 424.0Q282 411 261.5 385.5Q241 360 225.0 320.5Q209 281 201 227L165 0H27L138 697L155 673L67 695L79 771L287 779L214 368L162 292Q183 382 223.5 438.0Q264 494 314.0 520.0Q364 546 410 546Q456 546 487.0 523.5Q518 501 531.5 459.5Q545 418 535 361L490 75L431 118L562 76L549 1Z" transform="matrix(0.04 0 0 -0.04 674.0199999999999 329.2)" fill="#b23a2e"/>
  <path d="M234 -12Q176 -12 129.0 11.0Q82 34 54.5 83.0Q27 132 27 210Q27 274 47.5 334.5Q68 395 106.5 442.5Q145 490 201.0 518.0Q257 546 328 546Q412 546 459.5 507.5Q507 469 507 406Q507 359 480.0 323.0Q453 287 407.5 262.5Q362 238 304.5 225.5Q247 213 185 213Q174 213 165.5 213.5Q157 214 150 214L157 303Q168 302 178.5 301.0Q189 300 200 300Q231 300 261.5 305.5Q292 311 316.5 322.5Q341 334 356.0 351.5Q371 369 371 392Q371 416 354.5 431.5Q338 447 309 447Q274 447 247.5 425.5Q221 404 202.5 369.0Q184 334 174.0 293.0Q164 252 164 213Q164 147 191.5 118.0Q219 89 265 89Q298 89 336.0 101.0Q374 113 415 134L451 53Q396 21 340.5 4.5Q285 -12 234 -12Z" transform="matrix(0.04 0 0 -0.04 698.06 329.2)" fill="#b23a2e"/>
  <path d="M43 0 123 503 172 416 45 458 57 531 258 538 221 368 178 292Q196 376 235.5 432.5Q275 489 325.5 517.5Q376 546 424 546Q451 546 471 538L439 359H356L355 451L371 438Q345 441 320.5 426.5Q296 412 275.5 383.5Q255 355 239.5 315.5Q224 276 217 227L181 0Z" transform="matrix(0.04 0 0 -0.04 718.7399999999999 329.2)" fill="#b23a2e"/>
  <path d="M339 -5 393 330Q399 361 396.0 385.0Q393 409 382.0 423.0Q371 437 348 437Q327 437 304.5 424.0Q282 411 261.5 385.5Q241 360 225.0 320.5Q209 281 201 227L165 0H27L138 697L155 673L67 695L79 771L287 779L214 368L162 292Q183 382 223.5 438.0Q264 494 314.0 520.0Q364 546 410 546Q456 546 487.0 523.5Q518 501 531.5 459.5Q545 418 535 361L490 75L431 118L562 76L549 1Z" transform="matrix(0.04 0 0 -0.04 736.1799999999998 329.2)" fill="#b23a2e"/>
  <path d="M172 -12Q132 -12 98.5 9.0Q65 30 45.0 74.0Q25 118 25 189Q25 263 48.0 328.0Q71 393 113.0 442.0Q155 491 210.5 519.0Q266 547 331 547Q374 547 419.0 533.0Q464 519 509 486L447 499L474 534H548L468 29L421 118L548 76L536 1L341 -5L371 169L412 243Q395 159 355.5 102.0Q316 45 267.0 16.5Q218 -12 172 -12ZM228 100Q249 100 271.5 113.5Q294 127 314.5 154.5Q335 182 351.0 221.5Q367 261 376 313L398 452L421 406Q396 425 373.0 433.5Q350 442 328 442Q292 442 262.5 422.5Q233 403 211.0 369.5Q189 336 177.5 293.5Q166 251 166 205Q166 151 183.0 125.5Q200 100 228 100Z" transform="matrix(0.04 0 0 -0.04 760.2199999999999 329.2)" fill="#b23a2e"/>
  <path d="M642 -5 695 330Q701 362 699.0 386.0Q697 410 686.5 423.5Q676 437 656 437Q637 437 616.0 424.0Q595 411 575.5 385.0Q556 359 540.0 319.5Q524 280 516 227L481 0H343L396 330Q401 362 399.0 386.0Q397 410 387.0 423.5Q377 437 357 437Q338 437 317.0 424.0Q296 411 276.5 385.0Q257 359 241.0 319.5Q225 280 217 227L181 0H43L116 457L172 416L45 458L57 531L258 538L221 368L179 292Q200 382 240.5 438.0Q281 494 329.0 520.0Q377 546 420 546Q462 546 490.5 525.0Q519 504 531.5 465.0Q544 426 536 373L532 343L480 292Q501 382 541.0 438.0Q581 494 629.0 520.0Q677 546 720 546Q762 546 791.5 523.5Q821 501 834.0 459.5Q847 418 837 361L792 74L732 118L864 76L853 1Z" transform="matrix(0.04 0 0 -0.04 783.8599999999999 329.2)" fill="#b23a2e"/>
  <path d="M90 -10Q55 -10 36.0 9.5Q17 29 17 61Q17 100 42.5 124.0Q68 148 106 148Q139 148 159.0 128.5Q179 109 179 75Q179 36 153.0 13.0Q127 -10 90 -10Z" transform="matrix(0.04 0 0 -0.04 820.02 329.2)" fill="#b23a2e"/>
  <path d="" transform="matrix(0.04 0 0 -0.04 830.3799999999999 329.2)" fill="#b23a2e"/>
  <path d="M233 -12Q182 -12 127.5 -1.0Q73 10 22 31L53 220H137L140 99L127 122Q156 109 187.5 102.0Q219 95 250 95Q288 95 320.0 106.5Q352 118 371.5 140.0Q391 162 391 194Q391 228 370.0 248.0Q349 268 315.5 282.0Q282 296 244.0 310.0Q206 324 172.5 345.5Q139 367 117.5 402.0Q96 437 96 493Q96 567 133.5 616.0Q171 665 233.5 690.5Q296 716 371 716Q421 716 474.0 704.5Q527 693 579 671L543 497H461L457 605L474 590Q448 600 420.0 605.0Q392 610 366 610Q331 610 301.0 600.5Q271 591 253.0 571.0Q235 551 235 522Q235 491 256.5 472.5Q278 454 312.0 440.5Q346 427 383.5 412.5Q421 398 455.0 376.5Q489 355 510.5 319.0Q532 283 532 225Q532 146 490.5 93.5Q449 41 381.5 14.5Q314 -12 233 -12Z" transform="matrix(0.04 0 0 -0.04 837.42 329.2)" fill="#b23a2e"/>
  <path d="M172 -12Q132 -12 98.5 9.0Q65 30 45.0 74.0Q25 118 25 189Q25 263 48.0 328.0Q71 393 113.0 442.0Q155 491 210.5 519.0Q266 547 331 547Q374 547 419.0 533.0Q464 519 509 486L447 499L474 534H548L468 29L421 118L548 76L536 1L341 -5L371 169L412 243Q395 159 355.5 102.0Q316 45 267.0 16.5Q218 -12 172 -12ZM228 100Q249 100 271.5 113.5Q294 127 314.5 154.5Q335 182 351.0 221.5Q367 261 376 313L398 452L421 406Q396 425 373.0 433.5Q350 442 328 442Q292 442 262.5 422.5Q233 403 211.0 369.5Q189 336 177.5 293.5Q166 251 166 205Q166 151 183.0 125.5Q200 100 228 100Z" transform="matrix(0.04 0 0 -0.04 860.9 329.2)" fill="#b23a2e"/>
  <path d="M42 -5 123 503 173 416 45 458 57 531 266 538 185 27 137 116 264 74 252 1ZM212 615Q178 615 158.5 635.0Q139 655 139 689Q139 730 164.5 755.5Q190 781 229 781Q263 781 282.5 761.5Q302 742 302 707Q302 667 277.0 641.0Q252 615 212 615Z" transform="matrix(0.04 0 0 -0.04 884.54 329.2)" fill="#b23a2e"/>
  <path d="M172 -12Q132 -12 98.5 9.0Q65 30 45.0 74.0Q25 118 25 189Q25 263 48.0 328.0Q71 393 113.0 442.0Q155 491 210.5 519.0Q266 547 331 547Q374 547 419.0 533.0Q464 519 509 486L408 515L444 743L493 657L365 699L376 772L587 779L468 29L421 118L548 76L536 1L341 -5L371 169L413 243Q396 159 356.5 102.0Q317 45 267.5 16.5Q218 -12 172 -12ZM228 100Q249 100 271.0 113.5Q293 127 314.0 154.5Q335 182 351.0 221.5Q367 261 376 313L397 447L421 406Q396 425 373.0 433.5Q350 442 328 442Q292 442 262.5 422.5Q233 403 211.0 369.5Q189 336 177.5 293.5Q166 251 166 205Q166 151 183.0 125.5Q200 100 228 100Z" transform="matrix(0.04 0 0 -0.04 896.8599999999999 329.2)" fill="#b23a2e"/>
  <path d="" transform="matrix(0.04 0 0 -0.04 920.54 329.2)" fill="#b23a2e"/>
  <path d="M-64 -230 -52 -157 87 -116 14 -193 116 457 134 433 44 458 56 531 259 538 223 365 186 293Q203 377 240.5 433.5Q278 490 326.5 518.0Q375 546 422 546Q461 546 494.0 526.0Q527 506 547.0 461.0Q567 416 567 342Q567 245 533.0 172.0Q499 99 438.0 54.0Q377 9 292.5 -4.0Q208 -17 108 6L184 19L150 -197L101 -114L235 -157L223 -230ZM193 75 166 112Q225 89 273.5 96.0Q322 103 356.0 133.5Q390 164 408.5 214.0Q427 264 427 327Q427 385 409.5 410.5Q392 436 364 436Q343 436 321.0 422.0Q299 408 278.0 381.0Q257 354 241.0 314.0Q225 274 217 222Z" transform="matrix(0.04 0 0 -0.04 927.5799999999999 329.2)" fill="#b23a2e"/>
  <path d="M43 0 123 503 172 416 45 458 57 531 258 538 221 368 178 292Q196 376 235.5 432.5Q275 489 325.5 517.5Q376 546 424 546Q451 546 471 538L439 359H356L355 451L371 438Q345 441 320.5 426.5Q296 412 275.5 383.5Q255 355 239.5 315.5Q224 276 217 227L181 0Z" transform="matrix(0.04 0 0 -0.04 951.3 329.2)" fill="#b23a2e"/>
  <path d="M237 -12Q175 -12 128.0 10.5Q81 33 55.0 82.5Q29 132 29 211Q29 274 46.5 333.5Q64 393 100.5 441.0Q137 489 192.5 517.5Q248 546 324 546Q386 546 433.0 523.5Q480 501 506.5 452.0Q533 403 533 324Q533 261 515.5 201.0Q498 141 461.0 93.0Q424 45 368.5 16.5Q313 -12 237 -12ZM251 89Q290 89 317.0 113.5Q344 138 361.0 176.0Q378 214 385.5 255.0Q393 296 393 329Q393 383 373.5 414.0Q354 445 310 445Q271 445 244.0 420.5Q217 396 200.5 358.5Q184 321 176.5 280.0Q169 239 169 206Q169 152 188.5 120.5Q208 89 251 89Z" transform="matrix(0.04 0 0 -0.04 968.74 329.2)" fill="#b23a2e"/>
  <path d="M-64 -230 -52 -157 87 -116 14 -193 116 457 134 433 44 458 56 531 259 538 223 365 186 293Q203 377 240.5 433.5Q278 490 326.5 518.0Q375 546 422 546Q461 546 494.0 526.0Q527 506 547.0 461.0Q567 416 567 342Q567 245 533.0 172.0Q499 99 438.0 54.0Q377 9 292.5 -4.0Q208 -17 108 6L184 19L150 -197L101 -114L235 -157L223 -230ZM193 75 166 112Q225 89 273.5 96.0Q322 103 356.0 133.5Q390 164 408.5 214.0Q427 264 427 327Q427 385 409.5 410.5Q392 436 364 436Q343 436 321.0 422.0Q299 408 278.0 381.0Q257 354 241.0 314.0Q225 274 217 222Z" transform="matrix(0.04 0 0 -0.04 991.1800000000001 329.2)" fill="#b23a2e"/>
  <path d="M234 -12Q176 -12 129.0 11.0Q82 34 54.5 83.0Q27 132 27 210Q27 274 47.5 334.5Q68 395 106.5 442.5Q145 490 201.0 518.0Q257 546 328 546Q412 546 459.5 507.5Q507 469 507 406Q507 359 480.0 323.0Q453 287 407.5 262.5Q362 238 304.5 225.5Q247 213 185 213Q174 213 165.5 213.5Q157 214 150 214L157 303Q168 302 178.5 301.0Q189 300 200 300Q231 300 261.5 305.5Q292 311 316.5 322.5Q341 334 356.0 351.5Q371 369 371 392Q371 416 354.5 431.5Q338 447 309 447Q274 447 247.5 425.5Q221 404 202.5 369.0Q184 334 174.0 293.0Q164 252 164 213Q164 147 191.5 118.0Q219 89 265 89Q298 89 336.0 101.0Q374 113 415 134L451 53Q396 21 340.5 4.5Q285 -12 234 -12Z" transform="matrix(0.04 0 0 -0.04 1014.9000000000001 329.2)" fill="#b23a2e"/>
  <path d="M43 0 123 503 172 416 45 458 57 531 258 538 221 368 178 292Q196 376 235.5 432.5Q275 489 325.5 517.5Q376 546 424 546Q451 546 471 538L439 359H356L355 451L371 438Q345 441 320.5 426.5Q296 412 275.5 383.5Q255 355 239.5 315.5Q224 276 217 227L181 0Z" transform="matrix(0.04 0 0 -0.04 1035.58 329.2)" fill="#b23a2e"/>
  <path d="M90 -10Q55 -10 36.0 9.5Q17 29 17 61Q17 100 42.5 124.0Q68 148 106 148Q139 148 159.0 128.5Q179 109 179 75Q179 36 153.0 13.0Q127 -10 90 -10Z" transform="matrix(0.04 0 0 -0.04 1053.02 329.2)" fill="#b23a2e"/>
</svg>
