<svg xmlns="http://www.w3.org/2000/svg" width="512" height="512" viewBox="0 0 512 512" role="img" aria-label="Rovrum">
  <!-- Avatar: Bitter Bold R monogram OUTLINED + red dot on ink -->
  <rect width="512" height="512" rx="96" fill="#141518"/>
  <path d="M36 0V72L128 98L110 70V630L135 600L36 627V699L259 704H356Q476 704 537.0 654.0Q598 604 598 510Q598 426 546.5 371.0Q495 316 385 304L386 320Q425 319 450.0 308.0Q475 297 491.5 277.5Q508 258 522 231L602 77L561 102L653 72V0H489L399 193Q381 231 368.0 251.5Q355 272 336.0 279.5Q317 287 281 286H229L253 306V70L234 99L335 72V0ZM253 350 229 385H312Q382 385 417.0 414.0Q452 443 452 500Q452 548 424.0 575.0Q396 602 338 602H229L253 624Z" transform="matrix(0.34 0 0 -0.34 142.60999999999999 360)" fill="#f7f5f2"/>
  <circle cx="378" cy="352" r="24" fill="#b23a2e"/>
</svg>
