<svg xmlns="http://www.w3.org/2000/svg" width="833" height="300" viewBox="0 0 833 300" role="img" aria-label="Rovrum">
  <!-- Rovrum wordmark, Bitter Bold, OUTLINED to paths (no font dependency). light background variant. -->
  <path d="M36 0V72L128 98L110 70V630L135 600L36 627V699L259 704H356Q476 704 537.0 654.0Q598 604 598 510Q598 426 546.5 371.0Q495 316 385 304L386 320Q425 319 450.0 308.0Q475 297 491.5 277.5Q508 258 522 231L602 77L561 102L653 72V0H489L399 193Q381 231 368.0 251.5Q355 272 336.0 279.5Q317 287 281 286H229L253 306V70L234 99L335 72V0ZM253 350 229 385H312Q382 385 417.0 414.0Q452 443 452 500Q452 548 424.0 575.0Q396 602 338 602H229L253 624Z" transform="matrix(0.2 0 0 -0.2 40.0 200)" fill="#141518"/>
  <path d="M296 546Q414 546 480.0 476.0Q546 406 546 277Q546 187 514.0 122.5Q482 58 422.0 23.0Q362 -12 278 -12Q160 -12 95.5 58.0Q31 128 31 257Q31 347 62.5 411.5Q94 476 153.0 511.0Q212 546 296 546ZM289 446Q232 446 204.0 401.5Q176 357 176 264Q176 171 203.0 129.5Q230 88 285 88Q325 88 350.0 108.0Q375 128 388.0 169.0Q401 210 401 270Q401 361 373.0 403.5Q345 446 289 446Z" transform="matrix(0.2 0 0 -0.2 167.4 200)" fill="#141518"/>
  <path d="M322 530 548 538V467L491 442L510 463L345 -2H181L36 458L56 442L-4 458V530L241 538V467L168 445L178 463L280 87H269L382 455L390 444L322 458Z" transform="matrix(0.2 0 0 -0.2 276.8 200)" fill="#141518"/>
  <path d="M29 0V72L110 95L96 74V458L112 434L29 459V531L205 539L223 444L205 448Q250 495 294.0 520.5Q338 546 388 546Q420 546 456 536L447 354H365L351 459L364 432Q358 434 351.5 435.0Q345 436 339 436Q308 436 277.5 417.0Q247 398 225 368L236 406V74L220 95L319 72V0Z" transform="matrix(0.2 0 0 -0.2 379.6 200)" fill="#141518"/>
  <path d="M233 -12Q167 -12 122.0 31.5Q77 75 77 163V455L90 435L10 459V531L217 538V186Q217 139 238.0 116.5Q259 94 294 94Q321 94 353.0 108.5Q385 123 417 154L408 129V458L421 435L341 459V531L548 538V74L531 98L614 72V1L439 -7L420 91L439 84Q390 36 336.0 12.0Q282 -12 233 -12Z" transform="matrix(0.2 0 0 -0.2 467.6 200)" fill="#141518"/>
  <path d="M544 453 524 448Q572 497 626.0 521.5Q680 546 729 546Q792 546 834.5 504.5Q877 463 877 377V76L864 96L944 72V0H681V72L754 94L737 73V346Q737 394 717.5 417.0Q698 440 667 440Q641 440 609.0 424.0Q577 408 545 377L555 408Q557 400 557.0 393.5Q557 387 557 382V76L544 96L614 72V0H360V72L433 94L417 73V346Q417 394 397.0 417.0Q377 440 347 440Q321 440 289.0 425.0Q257 410 227 380L236 401V73L223 94L293 72V0H29V72L113 96L96 76V457L113 434L29 459V531L205 539L223 443L205 450Q252 497 305.5 521.5Q359 546 408 546Q454 546 490.0 523.5Q526 501 544 453Z" transform="matrix(0.2 0 0 -0.2 588.0 200)" fill="#141518"/>
  <path d="M37 68Q37 103 60.5 124.5Q84 146 116 146Q153 146 174.5 124.5Q196 103 196 68Q196 33 172.0 11.5Q148 -10 116 -10Q80 -10 58.5 11.5Q37 33 37 68Z" transform="matrix(0.2 0 0 -0.2 772.8 200)" fill="#b23a2e"/>
</svg>
